<mxfile host="app.diagrams.net" modified="2022-05-09T22:13:43.653Z" agent="5.0 (Macintosh; Intel Mac OS X 10_15_7) AppleWebKit/537.36 (KHTML, like Gecko) Chrome/100.0.4896.127 Safari/537.36" etag="gdACvfxVzXhnFBgrGz0N" version="18.0.2" type="github">
  <diagram id="3s9mN1WcGAwtKHtoNeX2" name="Page-1">
    <mxGraphModel dx="1796" dy="1657" grid="1" gridSize="10" guides="1" tooltips="1" connect="1" arrows="1" fold="1" page="1" pageScale="1" pageWidth="850" pageHeight="1100" math="0" shadow="0">
      <root>
        <mxCell id="0" />
        <mxCell id="1" parent="0" />
        <mxCell id="RcXLvfEw5BkcYQDkqR7S-64" value="&lt;div style=&quot;&quot;&gt;&lt;br&gt;&lt;/div&gt;" style="rounded=0;whiteSpace=wrap;html=1;align=center;" vertex="1" parent="1">
          <mxGeometry x="-60" y="-60" width="630" height="950" as="geometry" />
        </mxCell>
        <mxCell id="RcXLvfEw5BkcYQDkqR7S-62" value="&lt;div style=&quot;&quot;&gt;&lt;br&gt;&lt;/div&gt;" style="rounded=0;whiteSpace=wrap;html=1;align=center;" vertex="1" parent="1">
          <mxGeometry x="-30" y="130" width="590" height="440" as="geometry" />
        </mxCell>
        <mxCell id="RcXLvfEw5BkcYQDkqR7S-61" value="&lt;div style=&quot;&quot;&gt;&lt;br&gt;&lt;/div&gt;" style="rounded=0;whiteSpace=wrap;html=1;align=center;fillColor=#FFFFFF;" vertex="1" parent="1">
          <mxGeometry x="398" y="-30" width="150" height="150" as="geometry" />
        </mxCell>
        <mxCell id="RcXLvfEw5BkcYQDkqR7S-60" value="&lt;div style=&quot;&quot;&gt;&lt;br&gt;&lt;/div&gt;" style="rounded=0;whiteSpace=wrap;html=1;align=center;" vertex="1" parent="1">
          <mxGeometry x="200" y="50" width="150" height="50" as="geometry" />
        </mxCell>
        <mxCell id="RcXLvfEw5BkcYQDkqR7S-59" value="&lt;div style=&quot;&quot;&gt;&lt;br&gt;&lt;/div&gt;" style="rounded=0;whiteSpace=wrap;html=1;align=center;fillColor=#FFFFFF;" vertex="1" parent="1">
          <mxGeometry x="200" y="-10" width="150" height="50" as="geometry" />
        </mxCell>
        <mxCell id="RcXLvfEw5BkcYQDkqR7S-58" value="&lt;div style=&quot;&quot;&gt;&lt;br&gt;&lt;/div&gt;" style="rounded=0;whiteSpace=wrap;html=1;align=center;" vertex="1" parent="1">
          <mxGeometry x="-10" y="214" width="190" height="210" as="geometry" />
        </mxCell>
        <mxCell id="RcXLvfEw5BkcYQDkqR7S-54" value="&lt;div style=&quot;&quot;&gt;&lt;br&gt;&lt;/div&gt;" style="rounded=0;whiteSpace=wrap;html=1;align=center;" vertex="1" parent="1">
          <mxGeometry x="210" y="428" width="150" height="70" as="geometry" />
        </mxCell>
        <mxCell id="RcXLvfEw5BkcYQDkqR7S-52" value="&lt;div style=&quot;&quot;&gt;&lt;br&gt;&lt;/div&gt;" style="rounded=0;whiteSpace=wrap;html=1;align=center;" vertex="1" parent="1">
          <mxGeometry x="210" y="348" width="150" height="70" as="geometry" />
        </mxCell>
        <mxCell id="RcXLvfEw5BkcYQDkqR7S-50" value="&lt;div style=&quot;&quot;&gt;&lt;br&gt;&lt;/div&gt;" style="rounded=0;whiteSpace=wrap;html=1;align=center;" vertex="1" parent="1">
          <mxGeometry x="205" y="263" width="150" height="70" as="geometry" />
        </mxCell>
        <mxCell id="RcXLvfEw5BkcYQDkqR7S-48" value="&lt;div style=&quot;&quot;&gt;&lt;br&gt;&lt;/div&gt;" style="rounded=0;whiteSpace=wrap;html=1;align=center;" vertex="1" parent="1">
          <mxGeometry x="205" y="178" width="150" height="70" as="geometry" />
        </mxCell>
        <mxCell id="RcXLvfEw5BkcYQDkqR7S-49" value="Public Subnet" style="rounded=0;whiteSpace=wrap;html=1;fillColor=#FF9933;" vertex="1" parent="1">
          <mxGeometry x="205" y="178" width="150" height="20" as="geometry" />
        </mxCell>
        <mxCell id="RcXLvfEw5BkcYQDkqR7S-38" value="&lt;div style=&quot;&quot;&gt;&lt;br&gt;&lt;/div&gt;" style="rounded=0;whiteSpace=wrap;html=1;align=center;" vertex="1" parent="1">
          <mxGeometry x="580" y="170" width="570" height="270" as="geometry" />
        </mxCell>
        <mxCell id="RcXLvfEw5BkcYQDkqR7S-43" value="&lt;div style=&quot;&quot;&gt;&lt;br&gt;&lt;/div&gt;" style="rounded=0;whiteSpace=wrap;html=1;align=center;" vertex="1" parent="1">
          <mxGeometry x="620" y="210" width="150" height="70" as="geometry" />
        </mxCell>
        <mxCell id="RcXLvfEw5BkcYQDkqR7S-42" value="&lt;div style=&quot;&quot;&gt;&lt;br&gt;&lt;/div&gt;" style="rounded=0;whiteSpace=wrap;html=1;align=center;" vertex="1" parent="1">
          <mxGeometry x="805" y="210" width="150" height="110" as="geometry" />
        </mxCell>
        <mxCell id="RcXLvfEw5BkcYQDkqR7S-41" value="&lt;div style=&quot;&quot;&gt;&lt;br&gt;&lt;/div&gt;" style="rounded=0;whiteSpace=wrap;html=1;align=center;" vertex="1" parent="1">
          <mxGeometry x="980" y="210" width="150" height="210" as="geometry" />
        </mxCell>
        <mxCell id="RcXLvfEw5BkcYQDkqR7S-36" value="&lt;div style=&quot;&quot;&gt;&lt;br&gt;&lt;/div&gt;" style="rounded=0;whiteSpace=wrap;html=1;align=center;" vertex="1" parent="1">
          <mxGeometry x="345" y="610" width="210" height="240" as="geometry" />
        </mxCell>
        <mxCell id="RcXLvfEw5BkcYQDkqR7S-5" value="A Launch" style="rounded=0;whiteSpace=wrap;html=1;" vertex="1" parent="1">
          <mxGeometry x="25" y="244" width="120" height="30" as="geometry" />
        </mxCell>
        <mxCell id="RcXLvfEw5BkcYQDkqR7S-6" value="A Analytics" style="rounded=0;whiteSpace=wrap;html=1;" vertex="1" parent="1">
          <mxGeometry x="25" y="284" width="120" height="30" as="geometry" />
        </mxCell>
        <mxCell id="RcXLvfEw5BkcYQDkqR7S-9" value="A Audience Manager" style="rounded=0;whiteSpace=wrap;html=1;" vertex="1" parent="1">
          <mxGeometry x="25" y="324" width="120" height="30" as="geometry" />
        </mxCell>
        <mxCell id="RcXLvfEw5BkcYQDkqR7S-10" value="A Target" style="rounded=0;whiteSpace=wrap;html=1;" vertex="1" parent="1">
          <mxGeometry x="25" y="364" width="120" height="30" as="geometry" />
        </mxCell>
        <mxCell id="RcXLvfEw5BkcYQDkqR7S-11" value="Web Browser" style="rounded=0;whiteSpace=wrap;html=1;" vertex="1" parent="1">
          <mxGeometry x="215" width="120" height="30" as="geometry" />
        </mxCell>
        <mxCell id="RcXLvfEw5BkcYQDkqR7S-12" value="WAF/CDN" style="rounded=0;whiteSpace=wrap;html=1;" vertex="1" parent="1">
          <mxGeometry x="212" y="60" width="120" height="30" as="geometry" />
        </mxCell>
        <mxCell id="RcXLvfEw5BkcYQDkqR7S-13" value="ELB" style="rounded=0;whiteSpace=wrap;html=1;" vertex="1" parent="1">
          <mxGeometry x="220" y="208" width="120" height="30" as="geometry" />
        </mxCell>
        <mxCell id="RcXLvfEw5BkcYQDkqR7S-14" value="Apache Dispatcher" style="rounded=0;whiteSpace=wrap;html=1;" vertex="1" parent="1">
          <mxGeometry x="220" y="293" width="120" height="30" as="geometry" />
        </mxCell>
        <mxCell id="RcXLvfEw5BkcYQDkqR7S-15" value="Publisher" style="rounded=0;whiteSpace=wrap;html=1;" vertex="1" parent="1">
          <mxGeometry x="225" y="378" width="120" height="30" as="geometry" />
        </mxCell>
        <mxCell id="RcXLvfEw5BkcYQDkqR7S-16" value="Author" style="rounded=0;whiteSpace=wrap;html=1;" vertex="1" parent="1">
          <mxGeometry x="225" y="458" width="120" height="30" as="geometry" />
        </mxCell>
        <mxCell id="RcXLvfEw5BkcYQDkqR7S-17" value="Mail Service" style="rounded=0;whiteSpace=wrap;html=1;" vertex="1" parent="1">
          <mxGeometry x="225" y="528" width="120" height="30" as="geometry" />
        </mxCell>
        <mxCell id="RcXLvfEw5BkcYQDkqR7S-18" value="Serverless I/O" style="rounded=0;whiteSpace=wrap;html=1;" vertex="1" parent="1">
          <mxGeometry x="400" y="200" width="120" height="30" as="geometry" />
        </mxCell>
        <mxCell id="RcXLvfEw5BkcYQDkqR7S-19" value="CICD (Vendor)" style="rounded=0;whiteSpace=wrap;html=1;" vertex="1" parent="1">
          <mxGeometry x="400" y="240" width="120" height="30" as="geometry" />
        </mxCell>
        <mxCell id="RcXLvfEw5BkcYQDkqR7S-20" value="App Monitoring&lt;br&gt;(SaaS)" style="rounded=0;whiteSpace=wrap;html=1;" vertex="1" parent="1">
          <mxGeometry x="410" y="-10" width="120" height="30" as="geometry" />
        </mxCell>
        <mxCell id="RcXLvfEw5BkcYQDkqR7S-21" value="Map Service &lt;br&gt;(SaaS)" style="rounded=0;whiteSpace=wrap;html=1;" vertex="1" parent="1">
          <mxGeometry x="410" y="30" width="120" height="30" as="geometry" />
        </mxCell>
        <mxCell id="RcXLvfEw5BkcYQDkqR7S-22" value="Search&lt;br&gt;(SaaS)" style="rounded=0;whiteSpace=wrap;html=1;" vertex="1" parent="1">
          <mxGeometry x="410" y="70" width="120" height="30" as="geometry" />
        </mxCell>
        <mxCell id="RcXLvfEw5BkcYQDkqR7S-23" value="App Proxy" style="rounded=0;whiteSpace=wrap;html=1;" vertex="1" parent="1">
          <mxGeometry x="632.5" y="240" width="125" height="30" as="geometry" />
        </mxCell>
        <mxCell id="RcXLvfEw5BkcYQDkqR7S-25" value="Internal User" style="rounded=0;whiteSpace=wrap;html=1;" vertex="1" parent="1">
          <mxGeometry x="820" y="240" width="120" height="30" as="geometry" />
        </mxCell>
        <mxCell id="RcXLvfEw5BkcYQDkqR7S-26" value="ADFS" style="rounded=0;whiteSpace=wrap;html=1;" vertex="1" parent="1">
          <mxGeometry x="820" y="280" width="120" height="30" as="geometry" />
        </mxCell>
        <mxCell id="RcXLvfEw5BkcYQDkqR7S-27" value="CICD Tool" style="rounded=0;whiteSpace=wrap;html=1;" vertex="1" parent="1">
          <mxGeometry x="990" y="330" width="120" height="30" as="geometry" />
        </mxCell>
        <mxCell id="RcXLvfEw5BkcYQDkqR7S-28" value="Content Publisher" style="rounded=0;whiteSpace=wrap;html=1;" vertex="1" parent="1">
          <mxGeometry x="990" y="250" width="120" height="30" as="geometry" />
        </mxCell>
        <mxCell id="RcXLvfEw5BkcYQDkqR7S-29" value="User Device" style="rounded=0;whiteSpace=wrap;html=1;" vertex="1" parent="1">
          <mxGeometry x="990" y="290" width="120" height="30" as="geometry" />
        </mxCell>
        <mxCell id="RcXLvfEw5BkcYQDkqR7S-30" value="Code Repo" style="rounded=0;whiteSpace=wrap;html=1;" vertex="1" parent="1">
          <mxGeometry x="990" y="370" width="120" height="30" as="geometry" />
        </mxCell>
        <mxCell id="RcXLvfEw5BkcYQDkqR7S-31" value="Jenkins" style="rounded=0;whiteSpace=wrap;html=1;" vertex="1" parent="1">
          <mxGeometry x="390" y="635" width="120" height="30" as="geometry" />
        </mxCell>
        <mxCell id="RcXLvfEw5BkcYQDkqR7S-32" value="Git Hub" style="rounded=0;whiteSpace=wrap;html=1;" vertex="1" parent="1">
          <mxGeometry x="390" y="675" width="120" height="30" as="geometry" />
        </mxCell>
        <mxCell id="RcXLvfEw5BkcYQDkqR7S-33" value="Dispatcher" style="rounded=0;whiteSpace=wrap;html=1;" vertex="1" parent="1">
          <mxGeometry x="390" y="715" width="120" height="30" as="geometry" />
        </mxCell>
        <mxCell id="RcXLvfEw5BkcYQDkqR7S-34" value="Publisher" style="rounded=0;whiteSpace=wrap;html=1;" vertex="1" parent="1">
          <mxGeometry x="390" y="755" width="120" height="30" as="geometry" />
        </mxCell>
        <mxCell id="RcXLvfEw5BkcYQDkqR7S-35" value="Author" style="rounded=0;whiteSpace=wrap;html=1;" vertex="1" parent="1">
          <mxGeometry x="390" y="800" width="120" height="30" as="geometry" />
        </mxCell>
        <mxCell id="RcXLvfEw5BkcYQDkqR7S-37" value="Partner" style="rounded=0;whiteSpace=wrap;html=1;fontStyle=1" vertex="1" parent="1">
          <mxGeometry x="345" y="610" width="210" height="20" as="geometry" />
        </mxCell>
        <mxCell id="RcXLvfEw5BkcYQDkqR7S-40" value="Internal" style="rounded=0;whiteSpace=wrap;html=1;strokeColor=#330000;fillColor=#CCFF99;" vertex="1" parent="1">
          <mxGeometry x="580" y="170" width="570" height="20" as="geometry" />
        </mxCell>
        <mxCell id="RcXLvfEw5BkcYQDkqR7S-45" value="Perimeter" style="rounded=0;whiteSpace=wrap;html=1;fillColor=#E6E6E6;" vertex="1" parent="1">
          <mxGeometry x="620" y="210" width="150" height="20" as="geometry" />
        </mxCell>
        <mxCell id="RcXLvfEw5BkcYQDkqR7S-46" value="DC Zone" style="rounded=0;whiteSpace=wrap;html=1;fillColor=#CCCCCC;" vertex="1" parent="1">
          <mxGeometry x="805" y="210" width="150" height="20" as="geometry" />
        </mxCell>
        <mxCell id="RcXLvfEw5BkcYQDkqR7S-47" value="DC Zone" style="rounded=0;whiteSpace=wrap;html=1;fillColor=#E6E6E6;" vertex="1" parent="1">
          <mxGeometry x="980" y="210" width="150" height="20" as="geometry" />
        </mxCell>
        <mxCell id="RcXLvfEw5BkcYQDkqR7S-51" value="Private Subnet" style="rounded=0;whiteSpace=wrap;html=1;fillColor=#FF8000;" vertex="1" parent="1">
          <mxGeometry x="205" y="263" width="150" height="20" as="geometry" />
        </mxCell>
        <mxCell id="RcXLvfEw5BkcYQDkqR7S-53" value="Private Subnet" style="rounded=0;whiteSpace=wrap;html=1;fillColor=#FF8000;" vertex="1" parent="1">
          <mxGeometry x="210" y="348" width="150" height="20" as="geometry" />
        </mxCell>
        <mxCell id="RcXLvfEw5BkcYQDkqR7S-55" value="Private Subnet" style="rounded=0;whiteSpace=wrap;html=1;fillColor=#FF8000;" vertex="1" parent="1">
          <mxGeometry x="210" y="428" width="150" height="20" as="geometry" />
        </mxCell>
        <mxCell id="RcXLvfEw5BkcYQDkqR7S-63" value="AWS Application Hosting VPC" style="rounded=0;whiteSpace=wrap;html=1;strokeColor=#FFB366;fillColor=#FF9933;" vertex="1" parent="1">
          <mxGeometry x="-30" y="132" width="590" height="20" as="geometry" />
        </mxCell>
        <mxCell id="RcXLvfEw5BkcYQDkqR7S-65" value="External" style="rounded=0;whiteSpace=wrap;html=1;strokeColor=#FFB366;fillColor=#FFCCCC;" vertex="1" parent="1">
          <mxGeometry x="-60" y="-58" width="630" height="20" as="geometry" />
        </mxCell>
      </root>
    </mxGraphModel>
  </diagram>
</mxfile>
